<?xml version="1.0" encoding="UTF-8" standalone="no"?>
<!-- Created with Inkscape (http://www.inkscape.org/) -->

<svg
   version="1.1"
   id="svg55"
   xml:space="preserve"
   width="1936.1866"
   height="2235.04"
   viewBox="0 0 1936.1866 2235.04"
   xmlns="http://www.w3.org/2000/svg"
   xmlns:svg="http://www.w3.org/2000/svg"><defs
     id="defs59" /><g
     id="g61"
     transform="matrix(1.3333333,0,0,-1.3333333,-2365.2399,3784.1866)"><g
       id="g63"
       transform="scale(0.1)"><path
         d="m 25000.1,28381.4 -7260.7,-4192 -0.1,-8383.7 3383.6,-1953.7 0.8,2389.8 -1315.1,758.6 1.5,5993.5 5190.1,2996.4 5191.2,-2995.4 -0.7,-5994.9 -3530.2,-2038.1 0.6,-2388.9 5599.5,3232.9 0.1,8383.7 -7260.6,4191.8"
         style="fill:#469ada;fill-opacity:1;fill-rule:nonzero;stroke:none"
         id="path67" /><path
         d="m 25015.2,17610.8 v 0.1 l 1774.7,-1025.4 2067.9,1193.9 0.6,2.3 0.3,4463.1 -3867.6,2232 -3865.6,-2231.9 -1.8,-2535.5 1821,1051.3 v 0 l 2046,1181.3 1672.4,-964.8 -2.3,-1927.8 -1667.7,963.7 -2049,-1183 -0.1,-23.3 0.7,-6007.6 2046.7,-1180.6 v 6005.9 l 23.8,-13.7"
         style="fill:#469ada;fill-opacity:1;fill-rule:nonzero;stroke:none"
         id="path71" /></g></g></svg>
